<svg width="60" height="60" viewBox="0 0 60 60" fill="none" xmlns="http://www.w3.org/2000/svg">
<path fill-rule="evenodd" clip-rule="evenodd" d="M0 10.9091C0 4.88417 4.88417 0 10.9091 0H49.0909C55.1158 0 60 4.88417 60 10.9091V49.0909C60 55.1158 55.1158 60 49.0909 60H10.9091C4.88417 60 0 55.1158 0 49.0909V10.9091ZM10.9091 2.5L49.0909 5.45455C52.1034 5.45455 54.5455 7.89663 54.5455 10.9091V49.0909C54.5455 52.1034 52.1034 54.5455 49.0909 54.5455H10.9091C7.89663 54.5455 5.45455 52.1034 5.45455 49.0909L2.5 10.9091C2.5 6.25 6.25 2.5 10.9091 2.5Z" fill="#34C759"/>
<path d="M16 24.25L20.6667 19L30 29.5L39.3333 19.0001L44 24.2501L30 40L16 24.25Z" fill="#34C759"/>
</svg>
