<svg width="28" height="28" viewBox="0 0 28 28" fill="none" xmlns="http://www.w3.org/2000/svg">
<path d="M14 25.3647C14.1089 25.3647 14.2142 25.3611 14.3158 25.3538C14.4247 25.3465 14.5336 25.3393 14.6424 25.332L15.1978 26.3991C15.2849 26.5951 15.4265 26.7403 15.6225 26.8347C15.8185 26.9363 16.0326 26.969 16.2649 26.9327C16.4754 26.8964 16.6533 26.7984 16.7985 26.6387C16.9509 26.4863 17.0417 26.3011 17.0707 26.0834L17.234 24.8856C17.4373 24.8275 17.6369 24.7585 17.8329 24.6787C18.0362 24.6061 18.2358 24.5335 18.4318 24.4609L19.3247 25.2558C19.4844 25.401 19.6695 25.4881 19.88 25.5171C20.0906 25.5462 20.3011 25.499 20.5116 25.3756C20.9181 25.136 21.0669 24.7803 20.9581 24.3085L20.7076 23.1216C20.8746 23.0054 21.0415 22.8784 21.2085 22.7405C21.3827 22.6025 21.5461 22.4573 21.6985 22.3049L22.8092 22.784C23.0124 22.8639 23.2157 22.8784 23.419 22.8276C23.6295 22.7767 23.811 22.6606 23.9634 22.4791C24.0868 22.3194 24.1594 22.1343 24.1812 21.9238C24.203 21.7133 24.1522 21.5136 24.0287 21.3249L23.3863 20.2795C23.5024 20.1126 23.6113 19.9384 23.713 19.7569C23.8219 19.5681 23.9235 19.3758 24.0179 19.1798L25.2374 19.2342C25.4479 19.2487 25.6439 19.1979 25.8254 19.0818C26.0069 18.9583 26.1339 18.7914 26.2065 18.5809C26.2719 18.3776 26.2719 18.1743 26.2065 17.9711C26.1485 17.7606 26.0396 17.59 25.8799 17.4593L24.9108 16.7188C24.9616 16.5083 25.0088 16.2978 25.0523 16.0873C25.0959 15.8768 25.1285 15.6662 25.1503 15.4557L26.2828 15.0746C26.5078 15.002 26.682 14.8822 26.8054 14.7153C26.9288 14.5483 26.9905 14.3559 26.9905 14.1382C26.9905 13.9204 26.9288 13.728 26.8054 13.561C26.682 13.3941 26.5078 13.2743 26.2828 13.2017L25.1503 12.8206C25.1285 12.6101 25.0959 12.3996 25.0523 12.189C25.0088 11.9785 24.9616 11.768 24.9108 11.5575L25.869 10.817C26.0359 10.6791 26.1485 10.5121 26.2065 10.3161C26.2719 10.1129 26.2719 9.91324 26.2065 9.71724C26.1339 9.49946 26.0069 9.33249 25.8254 9.21634C25.6439 9.10019 25.4479 9.04575 25.2374 9.05301L24.0179 9.08568C23.9235 8.89693 23.8219 8.71182 23.713 8.53034C23.6113 8.3416 23.5024 8.15648 23.3863 7.975L24.0287 6.95144C24.1449 6.76995 24.1921 6.57395 24.1703 6.36343C24.1558 6.15291 24.0868 5.9678 23.9634 5.80809C23.811 5.62661 23.6295 5.51046 23.419 5.45965C23.2157 5.40883 23.0088 5.42335 22.7983 5.5032L21.6876 5.96054C21.5352 5.82261 21.3755 5.68469 21.2085 5.54676C21.0415 5.40883 20.8746 5.27453 20.7076 5.14387L20.9581 3.96786C21.0161 3.75008 21.0016 3.54319 20.9145 3.34719C20.8274 3.15118 20.6858 2.99874 20.4898 2.88985C20.2866 2.78096 20.0797 2.74103 19.8692 2.77007C19.6586 2.79185 19.4772 2.87896 19.3247 3.03141L18.4318 3.8263C18.2358 3.73919 18.0362 3.66297 17.8329 3.59763C17.6297 3.52504 17.43 3.45608 17.234 3.39074L17.0707 2.20384C17.0417 1.98606 16.9509 1.80095 16.7985 1.64851C16.646 1.4888 16.4573 1.38717 16.2322 1.34361C16.0145 1.31458 15.8112 1.35087 15.6225 1.4525C15.441 1.54688 15.3067 1.6848 15.2196 1.86629L14.6424 2.94429C14.5336 2.93703 14.4247 2.9334 14.3158 2.9334C14.2142 2.92615 14.1089 2.92252 14 2.92252C13.8911 2.92252 13.7822 2.92615 13.6733 2.9334C13.5717 2.9334 13.4664 2.93703 13.3576 2.94429L12.8022 1.86629C12.7006 1.67754 12.5554 1.53599 12.3667 1.44161C12.1779 1.34724 11.9674 1.31821 11.7351 1.3545C11.5246 1.3908 11.3431 1.4888 11.1906 1.64851C11.0455 1.80095 10.962 1.98606 10.9402 2.20384L10.766 3.39074C10.57 3.45608 10.3703 3.52504 10.1671 3.59763C9.96382 3.66297 9.76419 3.73919 9.56819 3.8263L8.68618 3.03141C8.52648 2.87896 8.33773 2.79185 8.11995 2.77007C7.90943 2.74103 7.70254 2.78096 7.49928 2.88985C7.31054 2.99874 7.17261 3.15118 7.0855 3.34719C6.99839 3.54319 6.98024 3.75371 7.03106 3.97875L7.29239 5.14387C7.12543 5.27453 6.95846 5.40883 6.7915 5.54676C6.62453 5.68469 6.4612 5.82261 6.3015 5.96054L5.19082 5.5032C4.9803 5.42335 4.77341 5.40883 4.57015 5.45965C4.36689 5.51046 4.18903 5.62661 4.03659 5.80809C3.90592 5.9678 3.83333 6.15291 3.81881 6.36343C3.80429 6.57395 3.85148 6.76995 3.96037 6.95144L4.6137 7.975C4.49755 8.15648 4.38504 8.3416 4.27615 8.53034C4.17452 8.71182 4.07651 8.89693 3.98214 9.08568L2.77347 9.05301C2.55569 9.04575 2.35606 9.10019 2.17457 9.21634C1.99309 9.33249 1.86605 9.49583 1.79346 9.70635C1.72087 9.90961 1.71724 10.1129 1.78257 10.3161C1.8479 10.5194 1.96042 10.6864 2.12013 10.817L3.07836 11.5684C3.02754 11.7789 2.98036 11.9894 2.9368 12.1999C2.90051 12.4032 2.87147 12.6101 2.84969 12.8206L1.70635 13.2017C1.24175 13.3542 1.00945 13.6663 1.00945 14.1382C1.00945 14.61 1.24175 14.9222 1.70635 15.0746L2.84969 15.4557C2.87147 15.6662 2.90051 15.8768 2.9368 16.0873C2.98036 16.2978 3.02754 16.5083 3.07836 16.7188L2.13102 17.4593C1.96405 17.59 1.8479 17.7606 1.78257 17.9711C1.71724 18.1743 1.72087 18.374 1.79346 18.57C1.86605 18.7878 1.99309 18.9583 2.17457 19.0818C2.35606 19.1979 2.55569 19.2487 2.77347 19.2342L3.98214 19.1798C4.07651 19.3758 4.17452 19.5681 4.27615 19.7569C4.38504 19.9384 4.49755 20.1126 4.6137 20.2795L3.94948 21.3358C3.84059 21.5173 3.7934 21.7133 3.80792 21.9238C3.8297 22.1343 3.90592 22.3194 4.03659 22.4791C4.18903 22.6606 4.36689 22.7767 4.57015 22.8276C4.77341 22.8784 4.9803 22.8566 5.19082 22.7622L6.29061 22.3049C6.45031 22.4573 6.61365 22.6025 6.78061 22.7405C6.95483 22.8784 7.12543 23.0054 7.29239 23.1216L7.03106 24.3194C6.9875 24.5226 7.00565 24.7222 7.0855 24.9182C7.17261 25.1142 7.31417 25.274 7.51017 25.3974C7.70617 25.5062 7.90943 25.5462 8.11995 25.5171C8.33773 25.4881 8.52285 25.401 8.67529 25.2558L9.56819 24.4609C9.76419 24.5335 9.96019 24.6061 10.1562 24.6787C10.3595 24.7585 10.5627 24.8275 10.766 24.8856L10.9402 26.0834C10.962 26.3011 11.0491 26.4863 11.2015 26.6387C11.354 26.7984 11.5391 26.9 11.7569 26.9436C11.9747 26.9726 12.1779 26.9363 12.3667 26.8347C12.5554 26.7403 12.7006 26.5988 12.8022 26.41L13.3576 25.332C13.4664 25.3393 13.5717 25.3465 13.6733 25.3538C13.7822 25.3611 13.8911 25.3647 14 25.3647ZM14 22.3484C12.8675 22.3484 11.8041 22.1379 10.8095 21.7169C9.82226 21.2886 8.95478 20.7006 8.20707 19.9529C7.45936 19.1979 6.87498 18.3268 6.45394 17.3395C6.04016 16.345 5.83327 15.2779 5.83327 14.1382C5.83327 13.0057 6.04016 11.9422 6.45394 10.9477C6.87498 9.95316 7.45936 9.08205 8.20707 8.33434C8.95478 7.57937 9.82226 6.99136 10.8095 6.57032C11.8041 6.14202 12.8675 5.92787 14 5.92787C15.1397 5.92787 16.2032 6.14202 17.1905 6.57032C18.185 6.99136 19.0561 7.57937 19.8038 8.33434C20.5515 9.08205 21.1323 9.95316 21.5461 10.9477C21.9671 11.9422 22.1776 13.0057 22.1776 14.1382C22.1776 15.2779 21.9671 16.345 21.5461 17.3395C21.1323 18.3268 20.5515 19.1979 19.8038 19.9529C19.0561 20.7006 18.185 21.2886 17.1905 21.7169C16.2032 22.1379 15.1397 22.3484 14 22.3484ZM11.3213 12.1019L13.5209 10.7517L10.2977 5.19831L7.96751 6.31988L11.3213 12.1019ZM17.1034 15.4231H23.5932L23.5823 12.7988H17.1142L17.1034 15.4231ZM13.4773 17.5137L11.3213 16.0982L7.83684 21.8584L10.1344 23.0236L13.4773 17.5137ZM14 17.7751C14.6679 17.7751 15.274 17.6117 15.8185 17.2851C16.3702 16.9584 16.8094 16.5192 17.136 15.9675C17.4627 15.4158 17.626 14.806 17.626 14.1382C17.626 13.4703 17.4627 12.8641 17.136 12.3197C16.8094 11.768 16.3702 11.3288 15.8185 11.0021C15.274 10.6755 14.6679 10.5121 14 10.5121C13.3321 10.5121 12.7224 10.6755 12.1707 11.0021C11.6189 11.3288 11.1798 11.768 10.8531 12.3197C10.5337 12.8641 10.374 13.4703 10.374 14.1382C10.374 14.806 10.5337 15.4158 10.8531 15.9675C11.1798 16.5192 11.6189 16.9584 12.1707 17.2851C12.7224 17.6117 13.3321 17.7751 14 17.7751ZM14 15.4448C13.6298 15.4448 13.3213 15.3214 13.0744 15.0746C12.8276 14.8205 12.7042 14.5084 12.7042 14.1382C12.7042 13.7752 12.8276 13.4703 13.0744 13.2235C13.3213 12.9694 13.6298 12.8424 14 12.8424C14.363 12.8424 14.6679 12.9694 14.9147 13.2235C15.1688 13.4703 15.2958 13.7752 15.2958 14.1382C15.2958 14.5084 15.1688 14.8205 14.9147 15.0746C14.6679 15.3214 14.363 15.4448 14 15.4448Z" fill="#415CBF"/>
</svg>
