<svg width="60" height="60" viewBox="0 0 60 60" fill="none" xmlns="http://www.w3.org/2000/svg">
<path fill-rule="evenodd" clip-rule="evenodd" d="M0 10.9091C0 4.88417 4.88417 0 10.9091 0H49.0909C55.1158 0 60 4.88417 60 10.9091V49.0909C60 55.1158 55.1158 60 49.0909 60H10.9091C4.88417 60 0 55.1158 0 49.0909V10.9091ZM10.9091 2.5L49.0909 5.45455C52.1034 5.45455 54.5455 7.89663 54.5455 10.9091V49.0909C54.5455 52.1034 52.1034 54.5455 49.0909 54.5455H10.9091C7.89663 54.5455 5.45455 52.1034 5.45455 49.0909L2.5 10.9091C2.5 6.25 6.25 2.5 10.9091 2.5Z" fill="#FF2D55"/>
<path d="M27.625 28.6C27.625 27.8268 28.2686 27.2 29.0625 27.2H31.9375C32.7314 27.2 33.375 27.8268 33.375 28.6C33.375 29.3732 32.7314 30 31.9375 30H29.0625C28.2686 30 27.625 29.3732 27.625 28.6Z" fill="#FF2D55"/>
<path d="M29.0625 32.8C28.2686 32.8 27.625 33.4268 27.625 34.2C27.625 34.9732 28.2686 35.6 29.0625 35.6H31.9375C32.7314 35.6 33.375 34.9732 33.375 34.2C33.375 33.4268 32.7314 32.8 31.9375 32.8H29.0625Z" fill="#FF2D55"/>
<path fill-rule="evenodd" clip-rule="evenodd" d="M26.3233 19.8489C25.3481 18.8454 24.75 17.4907 24.75 16H27.625C27.625 17.5464 28.9122 18.8 30.5 18.8C32.0878 18.8 33.375 17.5464 33.375 16H36.25C36.25 17.4907 35.6519 18.8454 34.6767 19.8489C36.5062 20.8369 37.9279 22.4539 38.6342 24.4H40.5625C41.3564 24.4 42 25.0268 42 25.8C42 26.5732 41.3564 27.2 40.5625 27.2H39.125V30H40.5625C41.3564 30 42 30.6268 42 31.4C42 32.1732 41.3564 32.8 40.5625 32.8H39.125V35.6H40.5625C41.3564 35.6 42 36.2268 42 37C42 37.7732 41.3564 38.4 40.5625 38.4H38.6342C37.4502 41.6625 34.2554 44 30.5 44C26.7446 44 23.5498 41.6625 22.3658 38.4H20.4375C19.6436 38.4 19 37.7732 19 37C19 36.2268 19.6436 35.6 20.4375 35.6H21.875V32.8H20.4375C19.6436 32.8 19 32.1732 19 31.4C19 30.6268 19.6436 30 20.4375 30H21.875V27.2H20.4375C19.6436 27.2 19 26.5732 19 25.8C19 25.0268 19.6436 24.4 20.4375 24.4H22.3658C23.0721 22.4539 24.4938 20.8369 26.3233 19.8489ZM24.75 35.6V27.2C24.75 24.1072 27.3244 21.6 30.5 21.6C33.6756 21.6 36.25 24.1072 36.25 27.2V35.6C36.25 38.6928 33.6756 41.2 30.5 41.2C27.3244 41.2 24.75 38.6928 24.75 35.6Z" fill="#FF2D55"/>
</svg>
