<svg width="60" height="60" viewBox="0 0 60 60" fill="none" xmlns="http://www.w3.org/2000/svg">
<path fill-rule="evenodd" clip-rule="evenodd" d="M0 10.9091C0 4.88417 4.88417 0 10.9091 0H49.0909C55.1158 0 60 4.88417 60 10.9091V49.0909C60 55.1158 55.1158 60 49.0909 60H10.9091C4.88417 60 0 55.1158 0 49.0909V10.9091ZM10.9091 2.5L49.0909 5.45455C52.1034 5.45455 54.5455 7.89663 54.5455 10.9091V49.0909C54.5455 52.1034 52.1034 54.5455 49.0909 54.5455H10.9091C7.89663 54.5455 5.45455 52.1034 5.45455 49.0909L2.5 10.9091C2.5 6.25 6.25 2.5 10.9091 2.5Z" fill="#405CBF"/>
<path fill-rule="evenodd" clip-rule="evenodd" d="M19.8182 20.8235H26.1818C27.5876 20.8235 28.7273 22.0877 28.7273 23.6471V36.3529C28.7273 37.1326 28.1575 37.7647 27.4545 37.7647H19.8182C19.1153 37.7647 18.5455 37.1326 18.5455 36.3529V22.2353C18.5455 21.4556 19.1153 20.8235 19.8182 20.8235ZM32.5455 40.5882C32.0992 40.5882 31.6708 40.5033 31.2727 40.3472V40.5882C31.2727 41.3679 30.7029 42 30 42C29.2971 42 28.7273 41.3679 28.7273 40.5882V40.3472C28.3292 40.5033 27.9008 40.5882 27.4545 40.5882H19.8182C17.7095 40.5882 16 38.692 16 36.3529V22.2353C16 19.8962 17.7095 18 19.8182 18H26.1818C27.7023 18 29.0672 18.7394 30 19.9118C30.9328 18.7394 32.2977 18 33.8182 18H40.1818C42.2905 18 44 19.8962 44 22.2353V36.3529C44 38.692 42.2905 40.5882 40.1818 40.5882H32.5455ZM31.2727 23.6471V36.3529C31.2727 37.1326 31.8425 37.7647 32.5455 37.7647H40.1818C40.8847 37.7647 41.4545 37.1326 41.4545 36.3529V22.2353C41.4545 21.4556 40.8847 20.8235 40.1818 20.8235H33.8182C32.4124 20.8235 31.2727 22.0877 31.2727 23.6471ZM21.0909 23.6471H26.1818V26.4706H21.0909V23.6471ZM33.8182 23.6471H38.9091V26.4706H33.8182V23.6471ZM38.9091 27.8824H33.8182V30.7059H38.9091V27.8824ZM21.0909 27.8824H26.1818V30.7059H21.0909V27.8824ZM38.9091 32.1176H33.8182V34.9412H38.9091V32.1176ZM21.0909 32.1176H26.1818V34.9412H21.0909V32.1176Z" fill="#415CBF"/>
</svg>
